<?xml version="1.0" encoding="UTF-8"?><svg id="a" xmlns="http://www.w3.org/2000/svg" viewBox="0 0 1080 1080"><path d="M123.22,530.97h-20.73c2.49-15.28,13.25-22.75,32.25-22.75,22.75,0,34.28,7.47,34.75,22.75v28.05c0,22.75-13.72,32.87-36,34.43-19.79,1.56-33.5-7.64-33.5-25.87.47-19.79,14.8-25.08,35.68-27.11,8.88-1.09,13.4-3.74,13.4-8.26-.47-4.67-4.83-7-13.4-7-7.33,0-11.37,1.87-12.47,5.76ZM149.39,558.08v-7.64c-4.83,2.03-10.44,3.74-16.51,4.99-8.26,1.56-12.47,5.46-12.47,11.53.46,6.55,3.9,9.66,10.44,9.66,11.53,0,18.54-6.85,18.54-18.54Z" fill="#194076"/><path d="M215.5,576.94c8.72,0,13.09-2.5,13.09-7.79,0-4.21-7.17-7.64-21.35-10.12-18.23-3.27-27.58-11.38-27.74-24.31,0-17.76,14.02-26.17,32.87-26.49,10.6,0,19.01,2.33,25.25,7.02,6.07,4.82,9.34,11.52,9.81,20.1h-13.09c-4.83-.15-7.95-1.87-9.2-5.14-1.4-3.59-5.61-5.62-12.46-5.62-8.11,0-12.15,2.18-12.15,6.39s5.3,7.49,16.05,9.5c14.02,2.8,23.21,6.39,27.74,10.59,3.9,4.06,5.76,9.05,5.76,14.65,0,20.25-15.89,27.74-37.71,27.74-11.53,0-20.26-2.5-25.86-7.32-6.24-4.68-9.35-11.85-9.35-21.35h21.19c.46,9.03,7.01,12.15,17.14,12.15Z" fill="#194076"/><path d="M282.08,524.27h-2.18v45.65c0,3.44,2.03,5.3,6.08,5.3h6.39v15.73c-6.71.62-14.03.62-21.82-.15s-11.53-5.61-11.37-14.81v-90.06h10.75c5.46,0,9.97,4.99,9.97,10.44v13.08h12.47v4.52c0,5.93-4.52,10.29-10.29,10.29Z" fill="#194076"/><path d="M337.88,593.76c-24.93-.77-37.4-15.26-37.4-43.32s12.62-42.07,37.71-42.22c26.17,0,38.49,16.05,36.93,48.3h-53.29c.77,12.62,6.23,19.01,16.36,19.01,4.83,0,9.34-2.02,13.4-5.91,1.87-2.03,4.21-2.97,7.01-2.97h15.27c-4.52,17.46-15.73,27.11-36,27.11ZM322.15,541.71h31.01c-1.25-10.9-6.39-16.51-15.28-16.51s-14.18,5.61-15.73,16.51Z" fill="#194076"/><path d="M384.83,549.35c.62-26.64,14.8-39.89,42.38-39.89h2.96v21.51h-7c-11.53,0-17.29,6.08-17.29,18.08v42.85h-21.04v-42.54Z" fill="#194076"/><path d="M475.67,576.95c8.72,0,13.08-2.5,13.08-7.79,0-4.21-7.17-7.64-21.34-10.12-18.23-3.27-27.58-11.38-27.74-24.31,0-17.76,14.02-26.17,32.87-26.49,10.59,0,19.01,2.33,25.25,7.02,6.06,4.82,9.34,11.52,9.81,20.1h-13.08c-4.83-.15-7.96-1.87-9.2-5.14-1.41-3.59-5.61-5.62-12.46-5.62-8.11,0-12.15,2.18-12.15,6.39s5.29,7.49,16.05,9.5c14.02,2.8,23.21,6.39,27.74,10.59,3.9,4.06,5.76,9.05,5.76,14.65,0,20.25-15.9,27.74-37.71,27.74-11.53,0-20.26-2.5-25.87-7.32-6.23-4.68-9.35-11.85-9.35-21.35h21.2c.46,9.03,7,12.15,17.14,12.15Z" fill="#02afed"/><path d="M542.25,524.28h-2.18v45.65c0,3.44,2.03,5.3,6.08,5.3h6.39v15.73c-6.71.62-14.03.62-21.82-.15s-11.53-5.61-11.37-14.81v-90.06h10.75c5.46,0,9.97,4.99,9.97,10.44v13.08h12.47v4.52c0,5.93-4.53,10.29-10.29,10.29Z" fill="#02afed"/><path d="M561.28,549.36c.62-26.64,14.81-39.89,42.39-39.89h2.96v21.51h-7.02c-11.53,0-17.29,6.08-17.29,18.08v42.85h-21.04v-42.54Z" fill="#02afed"/><path d="M653.09,593.77c-24.93-.77-37.4-15.26-37.4-43.32s12.62-42.07,37.72-42.22c26.17,0,38.48,16.05,36.92,48.3h-53.29c.77,12.62,6.23,19.01,16.37,19.01,4.82,0,9.34-2.02,13.4-5.91,1.87-2.03,4.2-2.97,7-2.97h15.28c-4.52,17.46-15.73,27.11-36,27.11ZM637.35,541.73h31.01c-1.26-10.9-6.39-16.51-15.28-16.51s-14.18,5.61-15.73,16.51Z" fill="#02afed"/><path d="M721.38,530.98h-20.73c2.5-15.28,13.25-22.75,32.25-22.75,22.76,0,34.28,7.47,34.75,22.75v28.05c0,22.75-13.72,32.87-36,34.43-19.79,1.56-33.5-7.64-33.5-25.87.47-19.79,14.79-25.08,35.68-27.11,8.88-1.09,13.4-3.74,13.4-8.26-.47-4.67-4.82-7-13.4-7-7.32,0-11.37,1.87-12.46,5.76ZM747.56,558.09v-7.64c-4.83,2.03-10.44,3.74-16.52,4.99-8.26,1.56-12.46,5.46-12.46,11.53.46,6.55,3.9,9.66,10.43,9.66,11.53,0,18.55-6.85,18.55-18.54Z" fill="#02afed"/><path d="M798.72,539.24v52.67h-21.04v-48.45c0-23.54,11.84-35.22,35.36-35.22,10.61,0,18.7,2.33,24.63,7.02,5.93-4.53,14.02-6.7,24.61-6.7,23.54,0,35.22,11.69,35.07,35.21v48.47h-10.76c-6.85-.47-10.28-3.74-10.28-10.29v-42.38c-.47-8.58-5.15-12.79-14.34-12.79s-13.87,4.21-14.03,12.79v52.35h-20.87v-52.67c-.47-8.58-5.15-12.78-14.34-12.78s-13.87,4.2-14.02,12.78Z" fill="#02afed"/><path d="M945.41,576.95c8.72,0,13.08-2.5,13.08-7.79,0-4.21-7.17-7.64-21.34-10.12-18.23-3.27-27.58-11.38-27.74-24.31,0-17.76,14.02-26.17,32.87-26.49,10.59,0,19.01,2.33,25.25,7.02,6.06,4.82,9.34,11.52,9.81,20.1h-13.08c-4.83-.15-7.96-1.87-9.2-5.14-1.41-3.59-5.61-5.62-12.46-5.62-8.11,0-12.15,2.18-12.15,6.39s5.29,7.49,16.05,9.5c14.02,2.8,23.21,6.39,27.74,10.59,3.9,4.06,5.76,9.05,5.76,14.65,0,20.25-15.9,27.74-37.71,27.74-11.53,0-20.26-2.5-25.87-7.32-6.23-4.68-9.35-11.85-9.35-21.35h21.2c.46,9.03,7,12.15,17.14,12.15Z" fill="#02afed"/></svg>